<svg width="1026" height="220" viewBox="0 0 1026 220" fill="none" xmlns="http://www.w3.org/2000/svg">
<circle cx="110.499" cy="109.837" r="109.569" fill="#FFB800"/>
<path d="M26.0324 122.694L131.359 70.3446C131.359 70.3446 163.213 54.5126 175.345 78.9233C187.478 103.334 155.624 119.166 155.624 119.166L120.648 136.55" stroke="#151419" stroke-width="22.6803"/>
<path d="M67.9562 33.0472L147.071 192.226" stroke="#151419" stroke-width="22.6803"/>
<path d="M261.739 153.669V65.7035H285.62V101.268H286.823L313.281 65.7035H341.114L311.392 104.876L341.802 153.669H313.281L293.524 120.682L285.62 130.991V153.669H261.739ZM348.201 153.669V65.7035H372.083V100.065H403.695V65.7035H427.577V153.669H403.695V119.308H372.083V153.669H348.201ZM438.916 153.669V65.7035H476.886C483.414 65.7035 489.127 66.8919 494.024 69.2685C498.92 71.6452 502.729 75.0671 505.449 79.5341C508.169 84.0011 509.529 89.3558 509.529 95.5981C509.529 101.898 508.126 107.21 505.32 111.533C502.542 115.857 498.634 119.122 493.594 121.326C488.583 123.531 482.727 124.634 476.027 124.634H453.348V106.078H471.216C474.022 106.078 476.413 105.735 478.389 105.048C480.394 104.332 481.925 103.201 482.985 101.654C484.073 100.108 484.617 98.0894 484.617 95.5981C484.617 93.0783 484.073 91.0309 482.985 89.456C481.925 87.8525 480.394 86.6784 478.389 85.9339C476.413 85.1608 474.022 84.7742 471.216 84.7742H462.798V153.669H438.916ZM490.459 113.294L512.45 153.669H486.507L465.031 113.294H490.459ZM542.559 153.669H516.788L545.824 65.7035H578.467L607.503 153.669H581.732L562.489 89.9285H561.802L542.559 153.669ZM537.749 118.964H586.199V136.832H537.749V118.964ZM615.975 153.669V65.7035H639.857V134.427H675.421V153.669H615.975ZM685.074 153.669V65.7035H748.472V84.946H708.956V100.065H745.207V119.308H708.956V134.427H748.3V153.669H685.074ZM836.427 65.7035V153.669H816.497L784.712 107.453H784.197V153.669H760.316V65.7035H780.589L811.858 111.748H812.545V65.7035H836.427ZM932.94 109.686C932.94 119.479 931.036 127.741 927.227 134.47C923.419 141.17 918.279 146.253 911.807 149.718C905.336 153.154 898.12 154.872 890.16 154.872C882.142 154.872 874.897 153.14 868.426 149.675C861.983 146.181 856.857 141.084 853.049 134.384C849.269 127.655 847.379 119.422 847.379 109.686C847.379 99.8933 849.269 91.6466 853.049 84.946C856.857 78.2169 861.983 73.1342 868.426 69.6981C874.897 66.2333 882.142 64.5009 890.16 64.5009C898.12 64.5009 905.336 66.2333 911.807 69.6981C918.279 73.1342 923.419 78.2169 927.227 84.946C931.036 91.6466 932.94 99.8933 932.94 109.686ZM908.371 109.686C908.371 104.418 907.67 99.9793 906.267 96.3713C904.892 92.7347 902.845 89.9857 900.124 88.1245C897.433 86.2346 894.111 85.2897 890.16 85.2897C886.208 85.2897 882.872 86.2346 880.152 88.1245C877.46 89.9857 875.413 92.7347 874.01 96.3713C872.635 99.9793 871.948 104.418 871.948 109.686C871.948 114.955 872.635 119.408 874.01 123.045C875.413 126.652 877.46 129.401 880.152 131.291C882.872 133.153 886.208 134.083 890.16 134.083C894.111 134.083 897.433 133.153 900.124 131.291C902.845 129.401 904.892 126.652 906.267 123.045C907.67 119.408 908.371 114.955 908.371 109.686ZM943.989 153.669V65.7035H967.871V101.268H969.073L995.532 65.7035H1023.36L993.642 104.876L1024.05 153.669H995.532L975.774 120.682L967.871 130.991V153.669H943.989Z" fill="white"/>
</svg>
