<svg width="1026" height="220" viewBox="0 0 1026 220" fill="none" xmlns="http://www.w3.org/2000/svg">
<circle cx="110.499" cy="110" r="109.569" fill="#FFB800"/>
<path d="M26.0324 122.857L131.359 70.5077C131.359 70.5077 163.213 54.6756 175.345 79.0864C187.478 103.497 155.624 119.329 155.624 119.329L120.648 136.713" stroke="white" stroke-width="22.6803"/>
<path d="M67.9562 33.2102L147.071 192.389" stroke="white" stroke-width="22.6803"/>
<path d="M261.739 153.832V65.8666H285.62V101.431H286.823L313.281 65.8666H341.114L311.392 105.039L341.802 153.832H313.281L293.524 120.845L285.62 131.154V153.832H261.739ZM348.201 153.832V65.8666H372.083V100.228H403.695V65.8666H427.577V153.832H403.695V119.471H372.083V153.832H348.201ZM438.916 153.832V65.8666H476.886C483.414 65.8666 489.127 67.0549 494.024 69.4316C498.92 71.8083 502.729 75.2301 505.449 79.6971C508.169 84.1641 509.529 89.5188 509.529 95.7612C509.529 102.061 508.126 107.373 505.32 111.696C502.542 116.02 498.634 119.285 493.594 121.489C488.583 123.694 482.727 124.797 476.027 124.797H453.348V106.241H471.216C474.022 106.241 476.413 105.898 478.389 105.211C480.394 104.495 481.925 103.364 482.985 101.817C484.073 100.271 484.617 98.2524 484.617 95.7612C484.617 93.2413 484.073 91.194 482.985 89.6191C481.925 88.0155 480.394 86.8415 478.389 86.097C476.413 85.3238 474.022 84.9373 471.216 84.9373H462.798V153.832H438.916ZM490.459 113.457L512.45 153.832H486.507L465.031 113.457H490.459ZM542.559 153.832H516.788L545.824 65.8666H578.467L607.503 153.832H581.732L562.489 90.0915H561.802L542.559 153.832ZM537.749 119.127H586.199V136.995H537.749V119.127ZM615.975 153.832V65.8666H639.857V134.59H675.421V153.832H615.975ZM685.074 153.832V65.8666H748.472V85.1091H708.956V100.228H745.207V119.471H708.956V134.59H748.3V153.832H685.074ZM836.427 65.8666V153.832H816.497L784.712 107.616H784.197V153.832H760.316V65.8666H780.589L811.858 111.911H812.545V65.8666H836.427ZM932.94 109.849C932.94 119.643 931.036 127.904 927.227 134.633C923.419 141.333 918.279 146.416 911.807 149.881C905.336 153.317 898.12 155.035 890.16 155.035C882.142 155.035 874.897 153.303 868.426 149.838C861.983 146.344 856.857 141.247 853.049 134.547C849.269 127.818 847.379 119.585 847.379 109.849C847.379 100.056 849.269 91.8096 853.049 85.1091C856.857 78.3799 861.983 73.2973 868.426 69.8611C874.897 66.3963 882.142 64.6639 890.16 64.6639C898.12 64.6639 905.336 66.3963 911.807 69.8611C918.279 73.2973 923.419 78.3799 927.227 85.1091C931.036 91.8096 932.94 100.056 932.94 109.849ZM908.371 109.849C908.371 104.581 907.67 100.142 906.267 96.5343C904.892 92.8977 902.845 90.1488 900.124 88.2875C897.433 86.3977 894.111 85.4527 890.16 85.4527C886.208 85.4527 882.872 86.3977 880.152 88.2875C877.46 90.1488 875.413 92.8977 874.01 96.5343C872.635 100.142 871.948 104.581 871.948 109.849C871.948 115.118 872.635 119.571 874.01 123.208C875.413 126.816 877.46 129.564 880.152 131.454C882.872 133.316 886.208 134.246 890.16 134.246C894.111 134.246 897.433 133.316 900.124 131.454C902.845 129.564 904.892 126.816 906.267 123.208C907.67 119.571 908.371 115.118 908.371 109.849ZM943.989 153.832V65.8666H967.871V101.431H969.073L995.532 65.8666H1023.36L993.642 105.039L1024.05 153.832H995.532L975.774 120.845L967.871 131.154V153.832H943.989Z" fill="black"/>
</svg>
