<svg width="25" height="24" viewBox="0 0 25 24" fill="none" xmlns="http://www.w3.org/2000/svg">
<g clip-path="url(#clip0_435_172)">
<path d="M12.0363 0C5.41534 0 0.0483398 5.367 0.0483398 11.987C0.0483398 17.066 3.20634 21.404 7.66634 23.149C7.56134 22.2 7.46734 20.746 7.70734 19.71C7.92634 18.773 9.11334 13.753 9.11334 13.753C9.11334 13.753 8.75434 13.033 8.75434 11.972C8.75434 10.309 9.72134 9.061 10.9223 9.061C11.9463 9.061 12.4403 9.83 12.4403 10.749C12.4403 11.778 11.7873 13.316 11.4483 14.741C11.1633 15.934 12.0483 16.906 13.2233 16.906C15.3513 16.906 16.9913 14.661 16.9913 11.419C16.9913 8.558 14.9283 6.55 11.9833 6.55C8.57334 6.55 6.57434 9.112 6.57434 11.749C6.57434 12.782 6.96834 13.892 7.46334 14.49C7.56234 14.61 7.57534 14.715 7.54834 14.835C7.45834 15.21 7.25534 16.034 7.21434 16.198C7.16134 16.423 7.04234 16.469 6.81334 16.363C5.31834 15.673 4.38034 13.485 4.38034 11.717C4.38034 7.941 7.12834 4.465 12.3003 4.465C16.4583 4.465 19.6923 7.432 19.6923 11.388C19.6923 15.523 17.0853 18.85 13.4593 18.85C12.2453 18.85 11.1053 18.221 10.7013 17.471L9.95234 20.319C9.68334 21.364 8.94834 22.671 8.45434 23.465C9.57734 23.81 10.7603 24 12.0043 24C18.6113 24 23.9893 18.635 23.9893 12.013C23.9893 5.39 18.6113 0.026 12.0043 0.026L12.0363 0Z" fill="white"/>
</g>
<defs>
<clipPath id="clip0_435_172">
<rect width="24" height="24" fill="white" transform="translate(0.0192871)"/>
</clipPath>
</defs>
</svg>
