<svg width="64" height="64" viewBox="0 0 64 64" fill="none" xmlns="http://www.w3.org/2000/svg">
<circle cx="32" cy="32" r="32" fill="#DCD2C8"/>
<path d="M32.6529 41.6766C28.7353 41.6766 24.8176 41.6766 20.9 41.6766C20.7086 41.6766 20.5148 41.6766 20.3226 41.6576C19.3418 41.57 18.9475 40.9375 19.3657 40.0824C19.7287 39.3441 20.1246 38.6247 20.509 37.8944C22.3237 34.4554 24.1385 31.0169 25.9532 27.5789C26.0093 27.4739 26.0679 27.3689 26.1331 27.2686C26.59 26.5674 27.3324 26.4687 27.9173 27.0736C28.3297 27.4968 28.6786 27.9721 29.0465 28.4309C30.9163 30.7697 32.786 33.1096 34.6557 35.4505C35.4724 36.4691 36.501 36.5244 37.4603 35.6084C37.9363 35.1536 38.4015 34.687 38.8833 34.2361C39.7519 33.4228 40.7376 33.4718 41.447 34.4201C42.8707 36.323 44.259 38.2513 45.6539 40.1732C45.7629 40.3239 45.8464 40.4902 45.9014 40.6659C46.0366 41.1073 45.8453 41.4626 45.3776 41.5803C45.0843 41.6475 44.7832 41.6785 44.4817 41.6726C40.541 41.679 36.5981 41.6803 32.6529 41.6766Z" fill="#78736E"/>
<path d="M41.4387 22.8326C41.4377 23.5666 41.2091 24.2838 40.7817 24.8933C40.3544 25.5028 39.7476 25.9771 39.0383 26.2561C38.329 26.535 37.5492 26.6061 36.7976 26.4603C36.0461 26.3145 35.3567 25.9584 34.8169 25.4371C34.277 24.9158 33.911 24.2528 33.7653 23.5321C33.6196 22.8115 33.7007 22.0656 33.9983 21.3891C34.296 20.7126 34.7967 20.136 35.4372 19.7323C36.0776 19.3286 36.8288 19.116 37.5956 19.1214C38.6167 19.1339 39.5918 19.5299 40.3107 20.2241C41.0296 20.9183 41.4347 21.8551 41.4387 22.8326Z" fill="#78736E"/>
</svg>
