<svg class="social-media" width="24" height="24" viewBox="0 0 24 24"  xmlns="http://www.w3.org/2000/svg">
<path d="M0 4.48035V19.2429H7.1554C7.8167 19.2429 8.4632 19.1597 9.0851 18.9949C9.7139 18.8295 10.2756 18.5746 10.7643 18.2288C11.2493 17.8857 11.6427 17.4408 11.932 16.8919C12.2182 16.3499 12.3614 15.7049 12.3614 14.9565C12.3614 14.0333 12.1424 13.2456 11.6939 12.5875C11.2479 11.9333 10.5752 11.4736 9.6665 11.2129C10.3339 10.8968 10.8323 10.4902 11.1725 9.99525C11.5096 9.49855 11.6783 8.87785 11.6783 8.13455C11.6783 7.44725 11.5656 6.86685 11.3408 6.40275C11.1102 5.93185 10.7888 5.55755 10.3776 5.27615C9.96 4.99535 9.4656 4.79045 8.8864 4.66765C8.3037 4.54155 7.6664 4.48045 6.96 4.48045L0 4.48035ZM15.6674 5.47065V6.92735H21.6518V5.47065H15.6674ZM3.2509 6.99465H6.2916C6.5789 6.99465 6.8599 7.01505 7.1275 7.06775C7.4003 7.11435 7.6355 7.20175 7.8435 7.32725C8.0531 7.44775 8.2189 7.62025 8.3445 7.84045C8.4653 8.06075 8.5251 8.34425 8.5251 8.68785C8.5251 9.30675 8.344 9.75805 7.97 10.0304C7.5922 10.3079 7.1157 10.4451 6.5396 10.4451H3.2509V6.99465ZM18.7959 8.25105C17.9769 8.25105 17.2372 8.39725 16.5665 8.68705C15.896 8.97745 15.3202 9.37455 14.8347 9.87855C14.3501 10.3796 13.9812 10.9771 13.7147 11.6694C13.4535 12.3594 13.3205 13.106 13.3205 13.9054C13.3205 14.7322 13.4489 15.4945 13.704 16.184C13.962 16.8763 14.3238 17.4662 14.7896 17.965C15.2676 18.4617 15.8356 18.8434 16.5156 19.1147C17.1962 19.3837 17.9538 19.5195 18.7959 19.5195C20.0039 19.5195 21.0405 19.2424 21.8908 18.6869C22.7507 18.1341 23.381 17.2159 23.7966 15.9295H21.2116C21.1116 16.2602 20.8526 16.5785 20.4276 16.8762C19.9981 17.175 19.4859 17.3254 18.8936 17.3254C18.0703 17.3254 17.4348 17.1086 16.9951 16.6792C16.5539 16.2498 16.2684 15.4503 16.2684 14.605H23.9814C24.0366 13.7759 23.9692 12.9832 23.7769 12.2253C23.5831 11.4652 23.2736 10.7888 22.8376 10.1963C22.4021 9.60325 21.8472 9.12965 21.1706 8.77985C20.4918 8.42555 19.7003 8.25105 18.7959 8.25105ZM18.7072 10.468C19.4281 10.468 20.0198 10.6772 20.3684 11.0634C20.7187 11.4524 20.9749 12.0066 21.045 12.7549H16.2684C16.282 12.5464 16.3264 12.3105 16.4023 12.0504C16.4772 11.7836 16.6062 11.534 16.7956 11.2974C16.9861 11.0648 17.2358 10.8664 17.5396 10.7078C17.8505 10.547 18.2382 10.468 18.7072 10.468ZM3.251 12.6639H6.7844C7.484 12.6639 8.0526 12.8241 8.4792 13.1475C8.9051 13.4755 9.1197 14.016 9.1197 14.7767C9.1197 15.1652 9.0565 15.4861 8.9251 15.7333C8.7941 15.9828 8.6145 16.1799 8.3971 16.3229C8.1799 16.472 7.9218 16.5727 7.631 16.6366C7.3448 16.7005 7.0405 16.7286 6.7195 16.7286H3.2509L3.251 12.6639Z" />
</svg>
