<svg width="601" height="401" viewBox="0 0 601 401" fill="none" xmlns="http://www.w3.org/2000/svg">
<rect x="0.75" y="0.290771" width="600" height="400" fill="#7D6E5F"/>
<path d="M301.035 274.987C275.107 274.987 249.178 274.987 223.25 274.987C221.983 274.987 220.7 274.987 219.428 274.861C212.937 274.282 210.328 270.105 213.096 264.456C215.498 259.579 218.118 254.828 220.662 250.003C232.673 227.287 244.684 204.575 256.694 181.866C257.065 181.172 257.453 180.478 257.884 179.816C260.909 175.184 265.822 174.533 269.693 178.528C272.423 181.323 274.732 184.463 277.167 187.493C289.542 202.942 301.916 218.398 314.291 233.861C319.696 240.589 326.504 240.954 332.853 234.904C336.003 231.9 339.082 228.817 342.27 225.839C348.019 220.467 354.543 220.79 359.238 227.054C368.661 239.624 377.849 252.361 387.081 265.056C387.803 266.052 388.355 267.15 388.719 268.31C389.614 271.226 388.348 273.573 385.252 274.35C383.311 274.794 381.319 274.999 379.323 274.96C353.242 275.002 327.146 275.011 301.035 274.987Z" fill="#DCD2C8"/>
<path d="M359.183 150.514C359.177 155.363 357.663 160.1 354.835 164.126C352.007 168.152 347.991 171.285 343.297 173.128C338.602 174.97 333.441 175.44 328.467 174.477C323.493 173.514 318.93 171.162 315.357 167.718C311.784 164.275 309.362 159.895 308.398 155.135C307.433 150.375 307.97 145.448 309.94 140.98C311.91 136.511 315.224 132.702 319.463 130.036C323.701 127.369 328.673 125.965 333.748 126.001C340.506 126.083 346.96 128.698 351.717 133.284C356.475 137.87 359.157 144.058 359.183 150.514Z" fill="#DCD2C8"/>
</svg>
