<svg width="600" height="300" viewBox="0 0 600 300" fill="none" xmlns="http://www.w3.org/2000/svg">
<rect width="600" height="300" fill="#DCD2C8"/>
<path d="M299.848 205.699C283.002 205.699 266.156 205.699 249.309 205.699C248.486 205.699 247.653 205.699 246.826 205.606C242.609 205.175 240.913 202.062 242.712 197.854C244.272 194.221 245.975 190.682 247.628 187.088C255.432 170.165 263.235 153.245 271.039 136.327C271.28 135.811 271.532 135.294 271.812 134.8C273.777 131.35 276.969 130.864 279.484 133.841C281.258 135.923 282.758 138.262 284.34 140.52C292.38 152.029 300.42 163.543 308.46 175.062C311.972 180.074 316.395 180.346 320.52 175.839C322.567 173.601 324.567 171.305 326.639 169.086C330.374 165.084 334.613 165.325 337.663 169.991C343.785 179.355 349.755 188.844 355.753 198.301C356.222 199.043 356.581 199.861 356.817 200.726C357.399 202.898 356.576 204.646 354.565 205.225C353.304 205.556 352.009 205.709 350.713 205.68C333.767 205.711 316.812 205.717 299.848 205.699Z" fill="#7D6E5F"/>
<path d="M337.628 112.972C337.623 116.584 336.64 120.113 334.802 123.112C332.965 126.111 330.356 128.445 327.306 129.818C324.256 131.191 320.902 131.54 317.671 130.823C314.439 130.105 311.474 128.353 309.153 125.788C306.832 123.223 305.258 119.96 304.631 116.414C304.005 112.868 304.353 109.197 305.633 105.869C306.913 102.54 309.066 99.7022 311.82 97.7156C314.574 95.729 317.805 94.6828 321.102 94.7097C325.493 94.7709 329.686 96.7195 332.777 100.136C335.868 103.552 337.61 108.162 337.628 112.972Z" fill="#7D6E5F"/>
</svg>
