<svg width="64" height="64" viewBox="0 0 64 64" fill="none" xmlns="http://www.w3.org/2000/svg">
<path d="M30 40C29 48 23 48 15 48C13 36 14 27 13 18L30 10C29.9224 15 31 20 34 24L21 32V34L27 40H30Z" fill="#FFD700"/>
<path d="M60 34C58 50 48 60 32 60C16 60 4 46 4 30C4 15 19 2 35 4C50 6 62 19 60 34Z" stroke="black" stroke-width="2" stroke-miterlimit="10"/>
<path d="M34 24H35L41 31L40 34L49 44C51 47 49 50 47 51C45 52 41 52 40 51L31 40H27L21 34V32" stroke="black" stroke-width="2" stroke-linecap="round" stroke-linejoin="round"/>
<path d="M21 32C21 32 12 26 13 18L30 10C30 10 31 21 34 24" stroke="black" stroke-width="2" stroke-linecap="round" stroke-linejoin="round"/>
<path d="M21 15C21 15 21 18 23 20" stroke="black" stroke-linecap="round" stroke-linejoin="round"/>
<path d="M17 16C17 16 17.9224 22 21 25" stroke="black" stroke-linecap="round" stroke-linejoin="round"/>
<path d="M42 44C42 44 42 45 44 45" stroke="black" stroke-linecap="round" stroke-linejoin="round"/>
<path d="M22 32L35 24" stroke="black" stroke-linecap="round" stroke-linejoin="round"/>
</svg>
