<svg width="64" height="64" viewBox="0 0 64 64" fill="none" xmlns="http://www.w3.org/2000/svg">
<path d="M12 44L25 53L50 23V20L48 22L38 20L15 41L12 39V44Z" fill="#FFD700"/>
<path d="M51 52C40 62 24 63 12 52C2 43 2 24 12 12C22 0 41 2 51 13C62 26 62 42 51 52Z" stroke="black" stroke-width="2" stroke-miterlimit="10"/>
<path d="M25 39L30 42" stroke="black" stroke-linecap="round" stroke-linejoin="round"/>
<path d="M40 22L45 25" stroke="black" stroke-linecap="round" stroke-linejoin="round"/>
<path d="M32 34L35 36" stroke="black" stroke-linecap="round" stroke-linejoin="round"/>
<path d="M37 29L40 31" stroke="black" stroke-linecap="round" stroke-linejoin="round"/>
<path d="M12 39V44L25 53V48" stroke="black" stroke-linecap="round" stroke-linejoin="round"/>
<path d="M50 19V23L25 53" stroke="black" stroke-linecap="round" stroke-linejoin="round"/>
<path d="M38 12L12 39L25 48L50 19L38 12Z" stroke="black" stroke-width="2" stroke-linecap="round" stroke-linejoin="round"/>
</svg>
