<svg width="64" height="64" viewBox="0 0 64 64" fill="none" xmlns="http://www.w3.org/2000/svg">
<path d="M32 30L28 29L33 24L32 18L36 20L43 17L44 20L50 26L42 28L40 38L32 30Z" fill="#FFD700"/>
<path d="M36 6C50 8 62 20 60 36C58 52 44 62 28 60C12 58 4 44 5 28C6 12 20 4 36 6Z" stroke="black" stroke-width="2" stroke-miterlimit="10"/>
<path d="M22 28L32 30L40 38L42 28L51 26L44 20L42 12L34 16L28 14L30 22L22 28Z" stroke="black" stroke-width="2" stroke-linecap="round" stroke-linejoin="round"/>
<path d="M30 30L16 48C16 48 16 50 18 52C22 54 24 52 24 52L34 32" stroke="black" stroke-width="2" stroke-linecap="round" stroke-linejoin="round"/>
<path d="M18 20H24" stroke="black" stroke-miterlimit="10" stroke-linecap="round"/>
<path d="M20 14L24 16" stroke="black" stroke-miterlimit="10" stroke-linecap="round"/>
<path d="M48 32L50 36" stroke="black" stroke-miterlimit="10" stroke-linecap="round"/>
<path d="M50 30L54 32" stroke="black" stroke-miterlimit="10" stroke-linecap="round"/>
</svg>
