<svg width="64" height="64" viewBox="0 0 64 64" fill="none" xmlns="http://www.w3.org/2000/svg">
<path d="M41 39C38 42 35 42 32 41L13 32C11 31 10 29 10 27C6 33 9 40 13 42L30 50C34 52 40 50 43 47L52 36C60 26 52 22 52 22C53 23 53 25 52 26L41 39Z" fill="#FFD700"/>
<path d="M12 24C6 28 6 38 12 42L28 50C32 52 38 52 42 48L52 36C57 30 57 24 51 20" stroke="black" stroke-width="2" stroke-linecap="round" stroke-linejoin="round"/>
<path d="M54 16C62 28 62 44 48 54C36 62 20 60 10 48C0 36 4 20 16 10C26 2 46 5 54 16Z" stroke="black" stroke-width="2" stroke-miterlimit="10"/>
<path d="M25 12L12 24C9 26 10 30 13 32L30 40C35 43 39 41 41 39L51 26C54 24 53 21 50 19L30 12C29 11 26 11 25 12Z" stroke="black" stroke-width="2" stroke-linecap="round" stroke-linejoin="round"/>
<path d="M21 29C20 30 18 30 17 29C16 28 15 27 16 26C17 25 19 25.5 20 26C21 26.5 22 28 21 29Z" stroke="black" stroke-width="2" stroke-linecap="round" stroke-linejoin="round"/>
<path d="M35 25C34 26 32 25.5 31 25C30 24.5 29 23 30 22C31 21 33 21.5 34 22C35 22.5 36 24 35 25Z" stroke="black" stroke-width="2" stroke-linecap="round" stroke-linejoin="round"/>
<path d="M48 25C47 26 45 25.5 44 25C43 24.5 42 23 43 22C44 21 46 21.5 47 22C48 22.54 49 24 48 25Z" stroke="black" stroke-width="2" stroke-linecap="round" stroke-linejoin="round"/>
<path d="M24 32L31 25" stroke="black" stroke-linecap="round" stroke-linejoin="round"/>
<path d="M34 22L38 18" stroke="black" stroke-linecap="round" stroke-linejoin="round"/>
<path d="M34 36L44 25" stroke="black" stroke-linecap="round" stroke-linejoin="round"/>
<path d="M20 26L30 16" stroke="black" stroke-linecap="round" stroke-linejoin="round"/>
</svg>
