<svg width="24" height="25" viewBox="0 0 24 25" fill="none" xmlns="http://www.w3.org/2000/svg">
<g clip-path="url(#clip0_1322_5193)">
<path fill-rule="evenodd" clip-rule="evenodd" d="M1.17157 1.37958C0 2.55115 0 4.43677 0 8.20801V16.208C0 19.9792 0 21.8649 1.17157 23.0364C2.34315 24.208 4.22876 24.208 8 24.208H16C19.7712 24.208 21.6569 24.208 22.8284 23.0364C24 21.8649 24 19.9792 24 16.208V8.20801C24 4.43677 24 2.55115 22.8284 1.37958C21.6569 0.208008 19.7712 0.208008 16 0.208008H8C4.22876 0.208008 2.34315 0.208008 1.17157 1.37958ZM11.991 18.208C11.991 18.208 17.4418 18.208 18.7938 17.848C19.5551 17.644 20.1276 17.056 20.3286 16.33C20.7001 14.998 20.7001 12.196 20.7001 12.196C20.7001 12.196 20.7001 9.412 20.3286 8.092C20.1276 7.348 19.5551 6.772 18.7938 6.574C17.4418 6.208 11.991 6.208 11.991 6.208C11.991 6.208 6.55232 6.208 5.20636 6.574C4.45726 6.772 3.87259 7.348 3.65943 8.092C3.3001 9.412 3.3001 12.196 3.3001 12.196C3.3001 12.196 3.3001 14.998 3.65943 16.33C3.87259 17.056 4.45726 17.644 5.20636 17.848C6.55232 18.208 11.991 18.208 11.991 18.208ZM14.7001 12.208L10.2001 9.65801V14.758L14.7001 12.208Z" fill="#BE2D14"/>
</g>
<defs>
<clipPath id="clip0_1322_5193">
<rect width="24" height="24" fill="white" transform="translate(0 0.208008)"/>
</clipPath>
</defs>
</svg>
