<svg width="24" height="25" viewBox="0 0 24 25" fill="none" xmlns="http://www.w3.org/2000/svg">
<g clip-path="url(#clip0_1322_5192)">
<path fill-rule="evenodd" clip-rule="evenodd" d="M1.17157 1.37958C0 2.55115 0 4.43677 0 8.20801V16.208C0 19.9792 0 21.8649 1.17157 23.0364C2.34315 24.208 4.22876 24.208 8 24.208H16C19.7712 24.208 21.6569 24.208 22.8284 23.0364C24 21.8649 24 19.9792 24 16.208V8.20801C24 4.43677 24 2.55115 22.8284 1.37958C21.6569 0.208008 19.7712 0.208008 16 0.208008H8C4.22876 0.208008 2.34315 0.208008 1.17157 1.37958ZM5.23267 7.07721C5.23267 7.97483 5.95691 8.70459 6.85848 8.70459C7.7561 8.70459 8.48507 7.97483 8.48507 7.07721C8.48507 6.18037 7.75689 5.4514 6.85848 5.4514C5.9577 5.4514 5.23267 6.18037 5.23267 7.07721ZM15.9655 18.9646H18.7664L18.7672 14.0107C18.7672 11.5795 18.2423 9.71176 15.4044 9.71176C14.0387 9.71176 13.1245 10.4604 12.7486 11.1697H12.7123V9.93952H10.0218V18.9646H12.8227V14.4986C12.8227 13.3212 13.0457 12.1824 14.506 12.1824C15.9443 12.1824 15.9655 13.5292 15.9655 14.5758V18.9646ZM5.45412 18.9646H8.26284V9.93952H5.45412V18.9646Z" fill="#BE2D14"/>
</g>
<defs>
<clipPath id="clip0_1322_5192">
<rect width="24" height="24" fill="white" transform="translate(0 0.208008)"/>
</clipPath>
</defs>
</svg>
