<svg width="24" height="24" viewBox="0 0 24 24" fill="none" xmlns="http://www.w3.org/2000/svg">
<g clip-path="url(#clip0_1322_5191)">
<path fill-rule="evenodd" clip-rule="evenodd" d="M1.17157 1.37958C0 2.55115 0 4.43677 0 8.20801V16.208C0 19.9792 0 21.8649 1.17157 23.0364C2.34315 24.208 4.22876 24.208 8 24.208H16C19.7712 24.208 21.6569 24.208 22.8284 23.0364C24 21.8649 24 19.9792 24 16.208V8.20801C24 4.43677 24 2.55115 22.8284 1.37958C21.6569 0.208008 19.7712 0.208008 16 0.208008H8C4.22876 0.208008 2.34315 0.208008 1.17157 1.37958ZM8.702 4.25601C9.55533 4.21801 9.82667 4.20801 12 4.20801C14.1733 4.20801 14.4447 4.21601 15.298 4.25601C16.1493 4.29534 16.73 4.43001 17.24 4.62801C17.7673 4.83134 18.2127 5.10601 18.6573 5.55067C19.1013 5.99534 19.376 6.44201 19.58 6.96801C19.7773 7.47734 19.912 8.05867 19.952 8.91001C19.99 9.76334 20 10.0347 20 12.208C20 14.3813 19.992 14.6527 19.952 15.506C19.9127 16.3573 19.7773 16.938 19.58 17.448C19.3767 17.9753 19.1013 18.4207 18.6573 18.8653C18.2127 19.3093 17.7653 19.584 17.24 19.788C16.73 19.9853 16.1493 20.12 15.298 20.16C14.4447 20.198 14.1733 20.208 12 20.208C9.82667 20.208 9.55533 20.2 8.702 20.16C7.85067 20.1207 7.27067 19.9853 6.76 19.788C6.23333 19.5847 5.78733 19.3093 5.34267 18.8653C4.898 18.4207 4.624 17.9733 4.42 17.448C4.222 16.938 4.088 16.3573 4.048 15.506C4.01 14.6527 4 14.3813 4 12.208C4 10.0347 4.008 9.76334 4.048 8.91001C4.08733 8.05801 4.222 7.47801 4.42 6.96801C4.62333 6.44134 4.898 5.99534 5.34267 5.55067C5.78733 5.10601 6.234 4.83201 6.76 4.62801C7.27 4.43001 7.85 4.29601 8.702 4.25601ZM15.2333 5.69534C14.39 5.65867 14.1353 5.64801 12 5.64801L11.97 5.62801C9.86333 5.62801 9.58874 5.63771 8.76919 5.66665L8.73067 5.66801C7.95067 5.70801 7.53 5.83801 7.25 5.94867C6.87067 6.08801 6.61 6.26801 6.33067 6.54734C6.05 6.82801 5.87067 7.08801 5.73067 7.46801C5.62067 7.74801 5.49133 8.17734 5.45067 8.95734L5.44895 9.00592C5.42026 9.81808 5.41 10.1085 5.41 12.198C5.41 14.2896 5.42029 14.5774 5.44906 15.3825L5.45067 15.4273C5.49133 16.2073 5.62067 16.6373 5.73067 16.9173C5.87067 17.288 6.05 17.558 6.33067 17.8373C6.61 18.1173 6.87067 18.2873 7.25 18.4367C7.53 18.5467 7.96 18.6767 8.74067 18.7173C9.58933 18.7567 9.83933 18.7667 11.98 18.7667C14.12 18.7667 14.37 18.758 15.2193 18.72C15.9993 18.6847 16.4293 18.554 16.7093 18.4447C17.08 18.3 17.35 18.1267 17.6293 17.8473C17.9093 17.566 18.0793 17.3007 18.2287 16.926C18.3387 16.6447 18.4687 16.2213 18.5093 15.4413C18.5487 14.598 18.5587 14.344 18.5587 12.208C18.5587 10.072 18.55 9.81868 18.512 8.97467C18.4767 8.19467 18.346 7.77134 18.2367 7.49001C18.092 7.11534 17.9187 6.84934 17.6393 6.56934C17.358 6.29001 17.0927 6.11667 16.718 5.97201C16.4367 5.86134 16.0133 5.73201 15.2333 5.69534ZM7.892 12.208C7.892 9.94001 9.73 8.10001 12 8.10001C14.268 8.10001 16.108 9.93801 16.108 12.208C16.108 14.476 14.27 16.316 12 16.316C9.732 16.316 7.892 14.478 7.892 12.208ZM9.33333 12.208C9.33333 13.6813 10.5267 14.8747 12 14.8747C13.4733 14.8747 14.6667 13.6813 14.6667 12.208C14.6667 10.7347 13.4733 9.54134 12 9.54134C10.5267 9.54134 9.33333 10.7347 9.33333 12.208ZM16.2707 8.89801C16.8 8.89801 17.2307 8.46801 17.2307 7.93801C17.2307 7.40867 16.7993 6.97801 16.2707 6.97867C15.7413 6.97867 15.3107 7.40867 15.3107 7.93801C15.3107 8.46734 15.7407 8.89801 16.2707 8.89801Z" fill="#fb7d64"/>
</g>
<defs>
<clipPath id="clip0_1322_5191">
<rect width="24" height="24" fill="white" transform="translate(0 0.208008)"/>
</clipPath>
</defs>
</svg>
